<svg xmlns="http://www.w3.org/2000/svg" viewBox="0 0 512 512">
  <rect width="512" height="512" rx="100" fill="#000000"/>
  <!-- Réticule externe -->
  <circle cx="256" cy="256" r="180" stroke="#30D158" stroke-width="8" fill="none"/>
  <!-- Lignes de visée -->
  <line x1="256" y1="50" x2="256" y2="150" stroke="#30D158" stroke-width="6" stroke-linecap="round"/>
  <line x1="256" y1="362" x2="256" y2="462" stroke="#30D158" stroke-width="6" stroke-linecap="round"/>
  <line x1="50" y1="256" x2="150" y2="256" stroke="#30D158" stroke-width="6" stroke-linecap="round"/>
  <line x1="362" y1="256" x2="462" y2="256" stroke="#30D158" stroke-width="6" stroke-linecap="round"/>
  <!-- Coins internes -->
  <path d="M160 100 L100 100 L100 160" stroke="rgba(255,255,255,0.7)" stroke-width="10" fill="none" stroke-linecap="round" stroke-linejoin="round"/>
  <path d="M352 100 L412 100 L412 160" stroke="rgba(255,255,255,0.7)" stroke-width="10" fill="none" stroke-linecap="round" stroke-linejoin="round"/>
  <path d="M160 412 L100 412 L100 352" stroke="rgba(255,255,255,0.7)" stroke-width="10" fill="none" stroke-linecap="round" stroke-linejoin="round"/>
  <path d="M352 412 L412 412 L412 352" stroke="rgba(255,255,255,0.7)" stroke-width="10" fill="none" stroke-linecap="round" stroke-linejoin="round"/>
  <!-- Anneau tournant (segment) -->
  <path d="M256 76 A180 180 0 0 1 436 256" stroke="#30D158" stroke-width="10" fill="none" stroke-linecap="round" opacity="0.6"/>
  <!-- Point central -->
  <circle cx="256" cy="256" r="18" fill="#30D158"/>
  <!-- Texte CALIPER -->
  <text x="256" y="330" font-family="monospace" font-size="38" font-weight="700" fill="white" text-anchor="middle" letter-spacing="4">CALIPER</text>
  <text x="256" y="370" font-family="monospace" font-size="24" font-weight="300" fill="#30D158" text-anchor="middle" letter-spacing="6">Pro CAM</text>
</svg>